<svg width="1031" height="1024" viewBox="0 0 1031 1024" fill="none" xmlns="http://www.w3.org/2000/svg">
<rect width="1031" height="1024" fill="#2788FF"/>
<path d="M412.222 324.757C456.996 387.255 489.363 417.546 506.881 429.581C512.794 433.644 516.548 441.302 514.475 448.17C512.213 455.662 503.763 459.652 495.973 458.902C465.245 455.942 415.101 470.817 384.692 482.108C378.351 484.463 371.818 486.521 365.154 487.677C235.935 510.079 250.054 418.001 263.222 368.257C276.722 317.257 340.222 224.257 412.222 324.757Z" fill="white"/>
<path d="M493.336 614.206C495.569 537.358 505.498 494.153 513.306 474.386C515.942 467.714 514.778 459.265 509.223 454.726C503.162 449.775 493.924 451.185 487.882 456.158C464.047 475.776 414.146 491.445 382.615 499.063C376.04 500.652 369.471 502.593 363.299 505.357C243.601 558.948 306.742 627.439 345.448 661.346C385.131 696.109 489.747 737.784 493.336 614.206Z" fill="white"/>
<path d="M533.923 618.206C531.691 541.358 521.762 498.153 513.953 478.386C511.318 471.714 512.481 463.265 518.037 458.726C524.097 453.775 533.336 455.185 539.378 460.158C563.213 479.776 613.114 495.445 644.645 503.063C651.219 504.652 657.788 506.593 663.961 509.357C783.658 562.948 720.518 631.439 681.812 665.346C642.129 700.109 537.513 741.784 533.923 618.206Z" fill="white"/>
<path d="M619 324.757C574.225 387.255 541.858 417.546 524.341 429.581C518.428 433.644 514.674 441.302 516.747 448.17C519.009 455.662 527.459 459.652 535.248 458.902C565.976 455.942 616.12 470.817 646.53 482.108C652.87 484.463 659.404 486.521 666.067 487.677C795.286 510.079 781.167 418.001 768 368.257C754.5 317.257 691 224.257 619 324.757Z" fill="white"/>
<rect x="493" y="428" width="48" height="40" fill="white"/>
</svg>
